<svg xmlns="http://www.w3.org/2000/svg" width="50.751" height="50.497" viewBox="0 0 50.751 50.497">
  <g id="Group_166" data-name="Group 166" transform="translate(-210.524 -344.381)">
    <path id="Path_121" data-name="Path 121" d="M259.611,383.964H249.446a1.663,1.663,0,1,1,0-3.327h4.674a1.664,1.664,0,0,0,0-3.327H243.475a1.664,1.664,0,0,1,0-3.329h9.31l-1.248-10.58H218.582l-1.052,8.916h-5.341a1.664,1.664,0,1,0,0,3.328h6.417a1.664,1.664,0,0,1,0,3.328h-4.372l-.589,4.991h-1.137a1.664,1.664,0,1,0,0,3.329h.743l0,.02h9.129a1.664,1.664,0,1,1,0,3.328h-5.135l-1.136,9.622h41.656l-1.527-12.95,3.377-.02a1.664,1.664,0,0,0,0-3.329Z" transform="translate(0 -7.655)" fill="#f6435b"/>
    <g id="Group_165" data-name="Group 165" transform="translate(223.835 344.381)">
      <g id="Group_162" data-name="Group 162" transform="translate(20.322 12.978)">
        <path id="Path_122" data-name="Path 122" d="M270.617,368a1.9,1.9,0,1,1-1.9-1.9A1.9,1.9,0,0,1,270.617,368Z" transform="translate(-266.811 -366.1)" fill="#fff"/>
      </g>
      <g id="Group_163" data-name="Group 163" transform="translate(0 12.978)">
        <path id="Path_123" data-name="Path 123" d="M236.605,368a1.9,1.9,0,1,1-1.9-1.9A1.9,1.9,0,0,1,236.605,368Z" transform="translate(-232.801 -366.1)" fill="#fff"/>
      </g>
      <g id="Group_164" data-name="Group 164" transform="translate(0.977)">
        <path id="Path_124" data-name="Path 124" d="M255.685,360.187a.926.926,0,0,1-.928-.925v-3.794a9.235,9.235,0,1,0-18.469,0v3.794a.926.926,0,0,1-1.852,0v-3.794a11.087,11.087,0,1,1,22.174,0v3.794A.925.925,0,0,1,255.685,360.187Z" transform="translate(-234.436 -344.381)" fill="#0d2247"/>
      </g>
    </g>
    <path id="Path_125" data-name="Path 125" d="M249.51,388.857a6.717,6.717,0,1,1-6.717-6.717A6.718,6.718,0,0,1,249.51,388.857Z" transform="translate(-10.284 -15.197)" fill="#f3f3f3"/>
    <path id="Path_126" data-name="Path 126" d="M241.246,409.3v.032a7.82,7.82,0,0,0,14.7-3.708c0-.026,0-.048,0-.073v-5.558a1.961,1.961,0,0,0-3.19-1.53,2.146,2.146,0,0,0-3.673-1.436,2.145,2.145,0,0,0-3.606-1.168v-3.2a2.148,2.148,0,1,0-4.3,0v7.869a3.48,3.48,0,0,0-2.545,5.755Z" transform="translate(-10.976 -18.564)" fill="#162560"/>
  </g>
</svg>
